# xmcd
#
# Track frame offsets:
#	151
#	12525
#	21886
#	32181
#	43055
#	52823
#	63127
#	77225
#	88153
#	98143
#	107997
#	120355
#	130342
#	139842
#	152102
#	160681
#	169167
#	179045
#	189030
#	199272
#	209110
#	220512
#	228886
#	239283
#	250592
#	261197
#
# Disc length: 3617
#
# Revision: 3
# Processed by: cddbd v1.5.1PL0 Copyright (c) Steve Scherf et al.
# Submitted via: CDex 1.40Release
# Normalized: r2:TDELIM( - )
#
DISCID=680e1f1a
DTITLE=Various Artist - The Specialty Story - Disc 5
DYEAR=1900
DGENRE=
TTITLE0=Clydie King - Our Romance
TTITLE1=Little Richard - Jenny Jenny
TTITLE2=Little Richard - Miss Ann
TTITLE3=Larry Williams - Short Fat Fannie
TTITLE4=Don and Dewey - Leavin' It All Up To You
TTITLE5=Little Richard - Keep A-Knockin'
TTITLE6=Larry Williams - Bony Moronie
TTITLE7=Rene Hall's Orchestra w. Willie Joe - Twitchy
TTITLE8=Sam Cooke - I'll Come Running Back To You
TTITLE9=Little Richard - Good Golly, Miss Molly
TTITLE10=Larry Williams - Slow Down
TTITLE11=Larry Williams - Dizzy, Miss Lizzy
TTITLE12=Don and Dewey - Justine
TTITLE13=Little Richard - True Fine Mama
TTITLE14=Little Richard - Ooh! My Soul
TTITLE15=Jerry Byrne - Lights Out/
TTITLE16=Soul Stirrers w. Johnnie Taylor - The Love Of God
TTITLE17=Don and Dewey - Koko Joe
TTITLE18=Little Richard - Baby Face
TTITLE19=Roddy Jackson - There's A Moose On The Loose
TTITLE20=Johnny Fuller - Haunted House
TTITLE21=Larry Williams - She Said Yeah
TTITLE22=Larry Williams - Bad Boy
TTITLE23=Don and Dewey - Farmer John
TTITLE24=Don and Dewey - Big Boy Pete
TTITLE25=Little Richard - Bama Lama Bama Loo
EXTD=
EXTT0=
EXTT1=
EXTT2=
EXTT3=
EXTT4=
EXTT5=
EXTT6=
EXTT7=
EXTT8=
EXTT9=
EXTT10=
EXTT11=
EXTT12=
EXTT13=
EXTT14=
EXTT15=
EXTT16=
EXTT17=
EXTT18=
EXTT19=
EXTT20=
EXTT21=
EXTT22=
EXTT23=
EXTT24=
EXTT25=
PLAYORDER=
